<svg id="svg" version="1.1" xmlns="http://www.w3.org/2000/svg" xmlns:xlink="http://www.w3.org/1999/xlink" width="400" height="400" viewBox="0, 0, 400,400"><g id="svgg"><path id="path0" d="M188.281 41.041 C 111.777 47.173,52.413 103.482,42.113 179.688 C 41.054 187.522,40.821 209.963,41.723 217.188 C 48.353 270.247,76.906 314.151,121.094 339.229 C 212.040 390.844,326.548 343.124,353.904 242.209 C 358.670 224.629,360.589 198.739,358.468 180.664 C 348.588 96.486,272.753 34.271,188.281 41.041 M300.013 99.421 C 301.483 100.181,302.344 101.863,302.344 103.974 L 302.344 105.643 285.740 122.263 L 269.136 138.884 272.202 142.003 C 278.034 147.938,277.733 150.050,269.919 157.991 L 264.521 163.477 266.643 165.749 C 271.865 171.341,273.259 178.677,270.183 184.381 C 269.186 186.230,262.783 192.900,237.305 218.628 C 219.902 236.201,202.642 253.653,198.949 257.411 L 192.233 264.243 196.859 268.960 C 204.440 276.693,204.458 279.918,196.961 287.172 C 189.157 294.723,188.500 294.497,172.662 278.809 C 166.209 272.417,160.797 267.187,160.636 267.187 C 160.474 267.187,157.715 269.819,154.504 273.035 L 148.666 278.882 151.872 282.167 C 158.305 288.757,158.082 292.392,150.794 299.700 C 145.732 304.776,142.584 305.860,138.477 303.940 C 135.811 302.695,97.517 263.908,96.940 261.869 C 95.721 257.567,96.651 255.366,101.807 250.345 C 109.287 243.059,111.979 242.961,119.285 249.707 L 122.987 253.125 124.091 252.005 C 124.698 251.389,127.386 248.662,130.064 245.945 L 134.932 241.004 123.180 229.193 C 110.217 216.167,109.816 215.624,110.277 211.737 C 110.606 208.953,111.286 207.898,115.239 204.039 C 122.253 197.190,125.317 197.170,132.294 203.924 C 134.191 205.760,135.981 207.409,136.274 207.587 C 136.659 207.823,147.386 197.286,175.141 169.411 C 216.788 127.584,214.617 129.561,219.999 128.569 C 224.673 127.708,229.762 129.519,234.120 133.596 L 236.743 136.050 242.102 130.780 C 250.277 122.741,252.525 122.558,259.278 129.384 L 262.111 132.247 278.419 115.895 C 287.388 106.901,295.078 99.393,295.508 99.210 C 296.748 98.683,298.768 98.777,300.013 99.421 M235.352 148.047 C 236.410 149.121,237.363 150.000,237.471 150.000 C 237.578 150.000,236.800 149.121,235.742 148.047 C 234.684 146.973,233.731 146.094,233.623 146.094 C 233.516 146.094,234.293 146.973,235.352 148.047 M184.556 173.145 L 182.617 175.195 184.668 173.257 C 185.796 172.191,186.719 171.268,186.719 171.206 C 186.719 170.915,186.357 171.239,184.556 173.145 M231.641 182.153 C 231.641 182.221,232.212 182.792,232.910 183.423 L 234.180 184.570 233.032 183.301 C 231.963 182.117,231.641 181.852,231.641 182.153 M31.341 192.578 C 31.341 193.330,31.421 193.638,31.519 193.262 C 31.618 192.886,31.618 192.271,31.519 191.895 C 31.421 191.519,31.341 191.826,31.341 192.578 M190.820 192.969 C 190.431 193.398,190.256 193.750,190.430 193.750 C 190.604 193.750,190.432 194.097,190.047 194.522 C 189.663 194.947,189.216 195.212,189.055 195.112 C 188.893 195.012,188.521 195.236,188.228 195.610 C 187.737 196.235,187.757 196.245,188.477 195.729 C 188.906 195.421,185.656 198.805,181.254 203.249 C 176.851 207.692,173.162 211.328,173.054 211.328 C 172.947 211.328,176.197 207.944,180.277 203.809 L 187.695 196.289 180.190 203.693 C 176.062 207.765,172.772 211.183,172.878 211.289 C 172.983 211.395,171.793 212.767,170.233 214.338 L 167.395 217.195 180.002 229.806 C 186.935 236.743,192.514 242.542,192.398 242.693 C 192.282 242.845,192.309 242.877,192.457 242.764 C 192.874 242.448,196.480 246.169,196.220 246.648 C 196.094 246.880,198.739 244.348,202.097 241.020 C 207.778 235.391,208.715 234.403,207.880 234.919 C 207.340 235.253,190.896 218.479,191.231 217.936 C 191.410 217.647,191.365 217.558,191.117 217.711 C 190.100 218.339,189.908 214.541,190.873 212.906 C 191.741 211.437,193.371 210.546,195.177 210.553 C 197.173 210.561,196.638 210.121,206.038 219.479 L 214.304 227.706 217.308 224.684 L 220.313 221.662 217.210 218.577 C 215.503 216.880,214.141 215.302,214.182 215.070 C 214.224 214.838,214.061 214.685,213.821 214.729 C 213.375 214.811,211.863 213.399,211.645 212.695 C 211.578 212.480,211.415 212.341,211.282 212.385 C 211.000 212.479,209.180 210.607,209.180 210.222 C 209.180 210.079,209.080 209.994,208.957 210.035 C 208.835 210.076,204.880 206.209,200.168 201.441 L 191.602 192.774 200.000 200.977 L 208.398 209.180 200.003 200.684 C 195.386 196.011,191.590 192.188,191.568 192.188 C 191.546 192.188,191.209 192.539,190.820 192.969 M207.617 195.313 C 208.456 196.172,209.231 196.875,209.338 196.875 C 209.446 196.875,208.847 196.172,208.008 195.313 C 207.169 194.453,206.394 193.750,206.287 193.750 C 206.179 193.750,206.778 194.453,207.617 195.313 M244.755 195.740 C 245.384 196.512,245.977 197.078,246.074 196.997 C 246.170 196.916,245.656 196.284,244.930 195.593 L 243.611 194.336 244.755 195.740 M210.938 198.633 C 211.666 199.385,212.351 200.000,212.458 200.000 C 212.565 200.000,212.057 199.385,211.328 198.633 C 210.599 197.881,209.915 197.266,209.808 197.266 C 209.700 197.266,210.209 197.881,210.938 198.633 M135.547 220.508 C 136.276 221.260,136.960 221.875,137.067 221.875 C 137.175 221.875,136.666 221.260,135.938 220.508 C 135.209 219.756,134.524 219.141,134.417 219.141 C 134.310 219.141,134.818 219.756,135.547 220.508 M133.398 226.563 C 134.238 227.422,135.012 228.125,135.119 228.125 C 135.227 228.125,134.628 227.422,133.789 226.563 C 132.950 225.703,132.175 225.000,132.068 225.000 C 131.961 225.000,132.559 225.703,133.398 226.563 M170.313 234.092 C 170.313 234.151,171.675 235.513,173.340 237.119 L 176.367 240.039 173.447 237.012 C 170.735 234.200,170.313 233.806,170.313 234.092 M207.422 235.259 C 207.422 235.316,204.917 237.821,201.855 240.826 L 196.289 246.289 201.753 240.723 C 206.828 235.552,207.422 234.979,207.422 235.259 M117.188 270.898 C 118.354 272.080,119.397 273.047,119.505 273.047 C 119.612 273.047,118.745 272.080,117.578 270.898 C 116.411 269.717,115.368 268.750,115.261 268.750 C 115.154 268.750,116.021 269.717,117.188 270.898 M143.729 270.996 L 142.383 272.461 143.848 271.115 C 145.211 269.862,145.492 269.531,145.194 269.531 C 145.129 269.531,144.469 270.190,143.729 270.996 " stroke="none" fill="#46b1eb" fill-rule="evenodd"></path><path id="path1" d="M184.961 31.840 C 125.329 37.525,75.574 71.588,48.885 125.000 C 20.363 182.079,27.245 253.147,66.152 303.320 C 68.605 306.484,70.039 308.192,75.170 314.062 C 80.583 320.256,91.019 329.699,99.414 336.001 C 168.752 388.051,268.939 378.246,325.587 313.867 C 332.982 305.462,340.092 296.006,343.707 289.765 C 350.243 278.484,353.548 271.872,356.946 263.281 C 361.908 250.738,364.879 239.347,367.390 223.242 C 372.785 188.639,364.532 145.923,346.485 115.039 C 345.355 113.105,344.100 110.944,343.696 110.235 C 327.459 81.775,293.867 54.399,259.570 41.679 C 236.815 33.239,208.900 29.558,184.961 31.840 M217.578 41.581 C 275.384 48.307,323.339 83.569,346.741 136.558 C 366.535 181.379,362.730 240.071,337.309 282.031 C 306.545 332.812,253.651 361.748,194.727 360.033 C 119.114 357.831,54.820 301.106,43.006 226.172 C 39.364 203.073,40.749 177.972,46.860 156.351 C 63.099 98.890,109.696 55.657,168.164 43.802 C 182.969 40.800,203.092 39.896,217.578 41.581 M295.508 99.210 C 295.078 99.393,287.388 106.901,278.419 115.895 L 262.111 132.247 259.278 129.384 C 252.525 122.558,250.277 122.741,242.102 130.780 L 236.743 136.050 234.120 133.596 C 229.762 129.519,224.673 127.708,219.999 128.569 C 214.617 129.561,216.788 127.584,175.141 169.411 C 147.386 197.286,136.659 207.823,136.274 207.587 C 135.981 207.409,134.191 205.760,132.294 203.924 C 125.317 197.170,122.253 197.190,115.239 204.039 C 111.286 207.898,110.606 208.953,110.277 211.737 C 109.816 215.624,110.217 216.167,123.180 229.193 L 134.932 241.004 130.064 245.945 C 127.386 248.662,124.698 251.389,124.091 252.005 L 122.987 253.125 119.285 249.707 C 111.979 242.961,109.287 243.059,101.807 250.345 C 96.651 255.366,95.721 257.567,96.940 261.869 C 97.517 263.908,135.811 302.695,138.477 303.940 C 142.584 305.860,145.732 304.776,150.794 299.700 C 158.082 292.392,158.305 288.757,151.872 282.167 L 148.666 278.882 154.504 273.035 C 157.715 269.819,160.474 267.187,160.636 267.187 C 160.797 267.187,166.209 272.417,172.662 278.809 C 188.500 294.497,189.157 294.723,196.961 287.172 C 204.458 279.918,204.440 276.693,196.859 268.960 L 192.233 264.243 198.949 257.411 C 202.642 253.653,219.902 236.201,237.305 218.628 C 262.783 192.900,269.186 186.230,270.183 184.381 C 273.259 178.677,271.865 171.341,266.643 165.749 L 264.521 163.477 269.919 157.991 C 277.733 150.050,278.034 147.938,272.202 142.003 L 269.136 138.884 285.740 122.263 L 302.344 105.643 302.344 103.974 C 302.344 100.107,298.953 97.744,295.508 99.210 M260.049 143.364 L 265.606 149.032 261.854 153.047 C 259.791 155.256,257.959 157.012,257.783 156.949 C 257.149 156.725,243.359 143.223,243.359 142.827 C 243.359 142.604,245.073 140.655,247.168 138.495 L 250.977 134.568 252.734 136.132 C 253.701 136.992,256.993 140.246,260.049 143.364 M224.855 138.125 C 227.045 139.030,258.737 170.364,261.329 174.188 C 262.608 176.075,262.899 178.746,261.998 180.321 C 261.322 181.501,253.008 190.219,252.539 190.239 C 252.324 190.248,248.105 186.116,243.164 181.056 L 234.180 171.856 232.286 171.866 C 229.392 171.880,227.805 173.793,228.090 176.923 C 228.210 178.246,228.671 178.822,233.883 184.153 C 236.417 186.746,240.238 190.673,242.374 192.880 L 246.258 196.893 241.983 201.181 C 239.632 203.539,237.612 205.469,237.494 205.469 C 237.376 205.469,233.197 201.429,228.208 196.491 C 222.742 191.082,218.728 187.411,218.109 187.256 C 214.021 186.230,210.925 190.943,213.541 194.208 C 214.114 194.923,218.286 199.243,222.814 203.807 L 231.046 212.107 229.406 213.746 L 227.767 215.386 212.902 200.577 C 204.727 192.433,198.085 185.629,198.142 185.458 C 198.199 185.287,202.479 180.887,207.654 175.679 C 217.536 165.734,217.856 165.295,217.129 162.665 C 216.616 160.805,215.124 159.769,212.936 159.752 L 211.133 159.738 187.891 183.131 C 155.619 215.613,157.149 213.989,156.834 216.087 C 156.255 219.951,155.977 219.603,173.661 237.191 L 189.878 253.320 187.849 255.371 C 186.733 256.499,185.705 257.422,185.565 257.422 C 185.204 257.422,143.355 215.499,143.332 215.113 C 143.315 214.843,178.008 179.661,209.608 147.902 C 220.392 137.063,221.134 136.588,224.855 138.125 M206.429 207.005 L 221.092 221.628 217.880 224.974 C 216.113 226.815,214.619 228.394,214.559 228.485 C 214.499 228.575,210.683 224.896,206.078 220.309 C 195.651 209.920,195.225 209.666,192.409 212.139 C 188.975 215.154,189.595 216.346,200.016 226.764 L 208.204 234.951 202.253 240.911 L 196.302 246.872 185.944 236.619 C 180.247 230.981,173.569 224.298,171.104 221.769 L 166.622 217.172 179.094 204.695 C 185.954 197.832,191.611 192.255,191.666 192.300 C 191.721 192.346,198.364 198.963,206.429 207.005 M158.678 243.427 C 177.753 262.585,193.359 278.280,193.359 278.305 C 193.359 278.461,189.501 282.422,189.349 282.422 C 189.018 282.422,121.500 214.661,120.339 213.164 C 119.849 212.532,122.832 208.594,123.801 208.594 C 123.909 208.594,139.604 224.269,158.678 243.427 M147.940 253.919 C 151.329 257.364,154.146 260.310,154.200 260.466 C 154.255 260.622,151.618 263.421,148.341 266.687 L 142.383 272.625 135.861 266.183 L 129.340 259.742 135.471 253.707 C 138.843 250.388,141.641 247.669,141.690 247.664 C 141.738 247.660,144.551 250.475,147.940 253.919 M129.220 271.967 L 147.258 290.027 144.636 292.670 C 141.458 295.872,141.738 295.862,138.893 292.868 C 137.618 291.527,129.624 283.442,121.130 274.902 L 105.686 259.374 108.399 256.640 C 109.891 255.136,111.127 253.906,111.147 253.906 C 111.166 253.906,119.299 262.033,129.220 271.967 " stroke="none" fill="#065da7" fill-rule="evenodd"></path><path id="path2" d="M0.000 200.000 L 0.000 400.000 200.000 400.000 L 400.000 400.000 400.000 200.000 L 400.000 0.000 200.000 0.000 L 0.000 0.000 0.000 200.000 M219.307 32.059 C 353.215 47.131,416.113 205.080,329.737 309.375 C 252.373 402.790,102.370 384.611,48.613 275.305 C -10.504 155.099,86.339 17.093,219.307 32.059 M247.172 138.839 L 243.367 142.805 250.607 150.011 C 255.085 154.466,257.953 157.047,258.123 156.772 C 258.274 156.528,259.948 154.724,261.841 152.765 L 265.284 149.202 258.354 141.984 C 254.542 138.014,251.323 134.790,251.200 134.819 C 251.077 134.848,249.264 136.657,247.172 138.839 M219.119 139.001 C 218.164 139.611,213.010 144.577,207.666 150.036 C 202.322 155.495,188.533 169.453,177.023 181.055 C 165.514 192.656,153.217 205.066,149.695 208.631 L 143.293 215.114 164.288 236.279 C 175.836 247.920,185.390 257.396,185.520 257.336 C 185.651 257.276,186.611 256.305,187.655 255.179 L 189.554 253.132 173.661 237.442 C 156.818 220.813,156.499 220.441,156.483 217.357 C 156.468 214.460,155.674 215.342,184.575 186.181 C 210.430 160.093,211.182 159.375,212.622 159.375 C 215.549 159.375,217.585 161.335,217.572 164.141 C 217.564 165.873,218.143 165.194,207.525 175.912 L 198.099 185.428 212.727 200.038 C 229.472 216.762,227.592 215.235,229.284 213.489 L 230.607 212.125 228.113 209.480 C 226.741 208.026,222.817 203.992,219.393 200.516 C 212.192 193.208,212.514 193.623,212.506 191.626 C 212.494 188.669,215.251 186.253,217.892 186.904 C 218.553 187.067,222.366 190.570,228.134 196.314 L 237.322 205.465 241.580 201.194 L 245.837 196.923 241.112 191.919 C 238.513 189.166,234.948 185.508,233.189 183.789 C 226.923 177.663,226.052 174.288,230.152 172.013 C 232.959 170.455,233.870 171.081,243.935 181.481 L 252.519 190.351 257.112 185.577 C 265.487 176.870,266.282 178.409,240.098 152.650 C 224.010 136.824,223.274 136.345,219.119 139.001 M121.675 210.551 L 119.747 212.509 138.101 230.962 C 148.195 241.110,163.836 256.846,172.859 265.929 L 189.264 282.443 191.297 280.382 L 193.330 278.320 158.519 243.457 C 139.373 224.282,123.685 208.594,123.656 208.594 C 123.627 208.594,122.736 209.475,121.675 210.551 M135.558 253.725 L 129.523 259.793 135.855 266.125 L 142.187 272.458 148.244 266.402 L 154.300 260.346 147.947 254.001 L 141.594 247.657 135.558 253.725 M108.590 256.840 L 106.069 259.384 116.261 269.633 C 121.867 275.270,129.853 283.363,134.006 287.616 L 141.559 295.349 144.295 292.613 L 147.030 289.877 129.223 272.087 C 119.429 262.302,111.347 254.297,111.263 254.297 C 111.179 254.297,109.976 255.441,108.590 256.840 " stroke="none" fill="#f8f7f6" fill-rule="evenodd"></path><path id="path3" d="M221.782 137.776 C 222.268 137.870,222.971 137.866,223.344 137.768 C 223.718 137.671,223.320 137.594,222.461 137.599 C 221.602 137.603,221.296 137.683,221.782 137.776 M230.078 142.773 C 231.895 144.600,233.469 146.094,233.577 146.094 C 233.684 146.094,232.285 144.600,230.469 142.773 C 228.652 140.947,227.078 139.453,226.970 139.453 C 226.863 139.453,228.261 140.947,230.078 142.773 M244.510 141.309 L 243.164 142.773 244.629 141.427 C 245.992 140.174,246.273 139.844,245.975 139.844 C 245.910 139.844,245.251 140.503,244.510 141.309 M246.094 145.898 C 247.478 147.295,248.698 148.438,248.806 148.438 C 248.913 148.438,247.868 147.295,246.484 145.898 C 245.100 144.502,243.880 143.359,243.773 143.359 C 243.665 143.359,244.710 144.502,246.094 145.898 M252.344 164.648 C 253.511 165.830,254.553 166.797,254.661 166.797 C 254.768 166.797,253.901 165.830,252.734 164.648 C 251.567 163.467,250.525 162.500,250.417 162.500 C 250.310 162.500,251.177 163.467,252.344 164.648 M258.984 171.680 C 259.713 172.432,260.397 173.047,260.505 173.047 C 260.612 173.047,260.104 172.432,259.375 171.680 C 258.646 170.928,257.962 170.313,257.855 170.313 C 257.747 170.313,258.256 170.928,258.984 171.680 M243.750 181.748 C 243.750 181.807,245.112 183.169,246.777 184.775 L 249.805 187.695 246.885 184.668 C 244.173 181.856,243.750 181.462,243.750 181.748 M235.531 186.035 C 237.149 187.760,237.500 188.070,237.500 187.777 C 237.500 187.714,236.665 186.879,235.645 185.921 L 233.789 184.180 235.531 186.035 M368.905 200.391 C 368.905 203.506,368.966 204.780,369.040 203.223 C 369.114 201.665,369.114 199.116,369.040 197.559 C 368.966 196.001,368.905 197.275,368.905 200.391 M172.245 198.730 L 170.898 200.195 172.363 198.849 C 173.169 198.109,173.828 197.450,173.828 197.384 C 173.828 197.086,173.498 197.367,172.245 198.730 M241.399 201.465 L 237.305 205.664 241.504 201.569 C 245.404 197.766,245.881 197.266,245.598 197.266 C 245.541 197.266,243.651 199.155,241.399 201.465 M218.359 206.055 C 221.684 209.385,224.493 212.109,224.600 212.109 C 224.707 212.109,222.075 209.385,218.750 206.055 C 215.425 202.725,212.617 200.000,212.509 200.000 C 212.402 200.000,215.034 202.725,218.359 206.055 M166.587 204.395 L 164.648 206.445 166.699 204.507 C 167.827 203.441,168.750 202.518,168.750 202.456 C 168.750 202.165,168.388 202.489,166.587 204.395 M161.328 209.570 C 159.728 211.182,158.506 212.500,158.613 212.500 C 158.721 212.500,160.118 211.182,161.719 209.570 C 163.319 207.959,164.541 206.641,164.434 206.641 C 164.326 206.641,162.929 207.959,161.328 209.570 M200.977 215.234 C 202.901 217.168,204.564 218.750,204.671 218.750 C 204.779 218.750,203.292 217.168,201.367 215.234 C 199.443 213.301,197.780 211.719,197.673 211.719 C 197.565 211.719,199.052 213.301,200.977 215.234 M229.288 213.486 C 228.459 214.341,227.728 214.776,227.356 214.634 C 226.872 214.450,226.853 214.502,227.253 214.906 C 227.654 215.310,228.061 215.091,229.396 213.757 C 230.302 212.851,230.948 212.109,230.833 212.109 C 230.717 212.109,230.022 212.729,229.288 213.486 M123.438 216.528 C 123.438 216.596,124.009 217.167,124.707 217.798 L 125.977 218.945 124.829 217.676 C 123.760 216.492,123.438 216.227,123.438 216.528 M128.125 221.289 C 129.292 222.471,130.335 223.438,130.442 223.438 C 130.549 223.438,129.683 222.471,128.516 221.289 C 127.349 220.107,126.306 219.141,126.199 219.141 C 126.091 219.141,126.958 220.107,128.125 221.289 M207.227 221.484 C 208.502 222.773,209.634 223.828,209.741 223.828 C 209.849 223.828,208.893 222.773,207.617 221.484 C 206.342 220.195,205.210 219.141,205.103 219.141 C 204.995 219.141,205.951 220.195,207.227 221.484 M137.891 222.764 C 137.891 222.823,139.253 224.185,140.918 225.791 L 143.945 228.711 141.025 225.684 C 138.313 222.872,137.891 222.478,137.891 222.764 M212.500 226.758 C 213.229 227.510,213.913 228.125,214.020 228.125 C 214.128 228.125,213.619 227.510,212.891 226.758 C 212.162 226.006,211.478 225.391,211.370 225.391 C 211.263 225.391,211.771 226.006,212.500 226.758 M166.797 230.664 C 168.614 232.490,170.188 233.984,170.295 233.984 C 170.403 233.984,169.004 232.490,167.188 230.664 C 165.371 228.838,163.797 227.344,163.689 227.344 C 163.582 227.344,164.980 228.838,166.797 230.664 M148.031 232.910 C 149.649 234.635,150.000 234.945,150.000 234.652 C 150.000 234.589,149.165 233.754,148.145 232.796 L 146.289 231.055 148.031 232.910 M129.874 258.994 C 129.285 259.645,129.250 259.868,129.676 260.263 C 130.087 260.644,130.133 260.637,129.902 260.229 C 129.735 259.934,129.902 259.395,130.296 258.960 C 130.672 258.544,130.893 258.203,130.785 258.203 C 130.678 258.203,130.268 258.559,129.874 258.994 M110.547 264.258 C 113.011 266.729,115.114 268.750,115.222 268.750 C 115.329 268.750,113.401 266.729,110.938 264.258 C 108.474 261.787,106.370 259.766,106.263 259.766 C 106.155 259.766,108.083 261.787,110.547 264.258 M149.993 264.746 L 145.898 268.945 150.098 264.851 C 153.998 261.048,154.474 260.547,154.192 260.547 C 154.135 260.547,152.245 262.437,149.993 264.746 M145.291 291.699 L 143.945 293.164 145.410 291.818 C 146.774 290.565,147.055 290.234,146.756 290.234 C 146.691 290.234,146.032 290.894,145.291 291.699 M137.500 291.528 C 137.500 291.596,138.071 292.167,138.770 292.798 L 140.039 293.945 138.892 292.676 C 137.822 291.492,137.500 291.227,137.500 291.528 M320.099 319.629 L 318.555 321.289 320.215 319.745 C 321.759 318.309,322.055 317.969,321.759 317.969 C 321.695 317.969,320.948 318.716,320.099 319.629 M185.254 369.019 C 185.630 369.118,186.245 369.118,186.621 369.019 C 186.997 368.921,186.689 368.841,185.938 368.841 C 185.186 368.841,184.878 368.921,185.254 369.019 " stroke="none" fill="#387092" fill-rule="evenodd"></path><path id="path4" d="M195.801 31.139 C 196.392 31.229,197.358 31.229,197.949 31.139 C 198.540 31.050,198.057 30.976,196.875 30.976 C 195.693 30.976,195.210 31.050,195.801 31.139 M202.837 31.140 C 203.431 31.229,204.310 31.227,204.791 31.134 C 205.271 31.042,204.785 30.968,203.711 30.971 C 202.637 30.974,202.244 31.050,202.837 31.140 M80.655 80.176 L 77.539 83.398 80.762 80.283 C 83.755 77.389,84.162 76.953,83.878 76.953 C 83.819 76.953,82.369 78.403,80.655 80.176 M249.389 136.426 L 248.242 137.695 249.512 136.548 C 250.210 135.917,250.781 135.346,250.781 135.278 C 250.781 134.977,250.459 135.242,249.389 136.426 M259.961 143.750 C 261.670 145.469,263.155 146.875,263.263 146.875 C 263.370 146.875,262.060 145.469,260.352 143.750 C 258.643 142.031,257.157 140.625,257.050 140.625 C 256.942 140.625,258.252 142.031,259.961 143.750 M241.016 153.711 C 243.048 155.752,244.799 157.422,244.906 157.422 C 245.014 157.422,243.439 155.752,241.406 153.711 C 239.374 151.670,237.623 150.000,237.515 150.000 C 237.408 150.000,238.983 151.670,241.016 153.711 M199.780 157.910 L 198.633 159.180 199.902 158.032 C 200.601 157.401,201.172 156.830,201.172 156.763 C 201.172 156.461,200.850 156.727,199.780 157.910 M192.383 165.234 C 189.166 168.457,186.621 171.094,186.729 171.094 C 186.836 171.094,189.556 168.457,192.773 165.234 C 195.991 162.012,198.535 159.375,198.428 159.375 C 198.320 159.375,195.600 162.012,192.383 165.234 M200.582 170.020 L 193.555 177.148 200.684 170.121 C 204.604 166.256,207.813 163.048,207.813 162.992 C 207.813 162.714,207.111 163.396,200.582 170.020 M238.086 175.781 C 239.144 176.855,240.098 177.734,240.205 177.734 C 240.312 177.734,239.535 176.855,238.477 175.781 C 237.418 174.707,236.465 173.828,236.357 173.828 C 236.250 173.828,237.028 174.707,238.086 175.781 M230.078 180.664 C 230.807 181.416,231.491 182.031,231.599 182.031 C 231.706 182.031,231.198 181.416,230.469 180.664 C 229.740 179.912,229.056 179.297,228.948 179.297 C 228.841 179.297,229.349 179.912,230.078 180.664 M201.563 189.258 C 203.379 191.084,204.953 192.578,205.061 192.578 C 205.168 192.578,203.770 191.084,201.953 189.258 C 200.136 187.432,198.562 185.938,198.455 185.938 C 198.347 185.938,199.746 187.432,201.563 189.258 M242.188 193.164 C 242.916 193.916,243.601 194.531,243.708 194.531 C 243.815 194.531,243.307 193.916,242.578 193.164 C 241.849 192.412,241.165 191.797,241.058 191.797 C 240.950 191.797,241.459 192.412,242.188 193.164 M179.122 204.940 L 166.643 217.234 181.372 231.951 L 196.101 246.669 202.048 240.722 L 207.995 234.776 199.310 226.059 L 190.625 217.343 190.625 215.468 C 190.625 212.760,192.447 210.938,195.156 210.938 L 197.031 210.938 205.743 219.619 L 214.456 228.300 217.786 224.990 L 221.117 221.680 214.758 215.465 C 211.260 212.047,204.619 205.515,200.000 200.949 L 191.602 192.647 179.122 204.940 M217.305 224.688 L 214.304 227.706 206.038 219.479 C 196.034 209.520,195.730 209.333,192.594 211.186 C 187.796 214.020,188.948 216.575,199.963 227.536 L 207.419 234.954 201.857 240.526 L 196.295 246.098 181.840 231.644 L 167.386 217.189 179.492 205.079 L 191.597 192.968 205.952 207.319 L 220.306 221.669 217.305 224.688 M149.506 208.502 L 142.966 215.051 146.971 218.949 L 150.977 222.847 147.169 218.946 L 143.361 215.046 149.899 208.499 C 153.495 204.899,156.349 201.953,156.241 201.953 C 156.134 201.953,153.103 204.900,149.506 208.502 M228.320 209.766 C 229.596 211.055,230.727 212.109,230.835 212.109 C 230.942 212.109,229.987 211.055,228.711 209.766 C 227.435 208.477,226.304 207.422,226.196 207.422 C 226.089 207.422,227.045 208.477,228.320 209.766 M130.859 215.820 C 132.243 217.217,133.464 218.359,133.571 218.359 C 133.679 218.359,132.634 217.217,131.250 215.820 C 129.866 214.424,128.646 213.281,128.538 213.281 C 128.431 213.281,129.475 214.424,130.859 215.820 M135.156 228.225 C 135.156 228.281,139.946 233.071,145.801 238.870 L 156.445 249.414 145.901 238.770 C 136.103 228.878,135.156 227.949,135.156 228.225 M178.320 242.188 C 179.596 243.477,180.727 244.531,180.835 244.531 C 180.942 244.531,179.987 243.477,178.711 242.188 C 177.435 240.898,176.304 239.844,176.196 239.844 C 176.089 239.844,177.045 240.898,178.320 242.188 M187.891 254.883 C 186.942 255.850,186.253 256.641,186.361 256.641 C 186.468 256.641,187.332 255.850,188.281 254.883 C 189.230 253.916,189.919 253.125,189.811 253.125 C 189.704 253.125,188.839 253.916,187.891 254.883 M123.438 266.514 C 123.438 266.573,124.800 267.935,126.465 269.541 L 129.492 272.461 126.572 269.434 C 123.860 266.622,123.438 266.228,123.438 266.514 M122.852 276.563 C 124.776 278.496,126.439 280.078,126.546 280.078 C 126.654 280.078,125.167 278.496,123.242 276.563 C 121.318 274.629,119.655 273.047,119.548 273.047 C 119.440 273.047,120.927 274.629,122.852 276.563 M198.746 369.821 C 200.097 369.897,202.206 369.897,203.433 369.819 C 204.660 369.742,203.555 369.680,200.977 369.680 C 198.398 369.681,197.395 369.744,198.746 369.821 " stroke="none" fill="#bddff4" fill-rule="evenodd"></path></g></svg>